Coordinates
version=1
nRows=47
nColumns=21
inDegrees=no
endheader
time	ra_wr_s_p	ra_wr_e_f	ra_cmc1_ad_ab	ra_cmc1_f_e	ra_mcp1_f_e	ra_ip1_f_e	ra_mcp2_e_f	ra_pip2_e_f	ra_dip2_e_f	ra_mcp3_e_f	ra_pip3_e_f	ra_dip3_e_f	ra_mcp4_e_f	ra_pip4_e_f	ra_dip4_e_f	ra_mcp5_e_f	ra_pip5_e_f	ra_dip5_e_f	ra_el_e_f	ra_wr_ad_ab
0.375000	0.000000	0.087300	0.798953	0.073747	-0.066370	-0.132740	0.132740	0.176987	0.132740	0.132740	0.176987	0.132740	0.132740	0.176987	0.132740	0.132740	0.176987	0.132740	0.000000	0.085000
0.376000	0.000000	0.087300	0.799578	0.073122	-0.065807	-0.131614	0.131614	0.175485	0.131614	0.131614	0.175485	0.131614	0.131614	0.175485	0.131614	0.131614	0.175485	0.131614	0.000000	0.085000
0.377000	0.000000	0.087300	0.800195	0.072505	-0.065252	-0.130504	0.130504	0.174005	0.130504	0.130504	0.174005	0.130504	0.130504	0.174005	0.130504	0.130504	0.174005	0.130504	0.000000	0.085000
0.378000	0.000000	0.087300	0.800802	0.071898	-0.064705	-0.129411	0.129411	0.172548	0.129411	0.129411	0.172548	0.129411	0.129411	0.172548	0.129411	0.129411	0.172548	0.129411	0.000000	0.085000
0.379000	0.000000	0.087300	0.801401	0.071299	-0.064167	-0.128334	0.128334	0.171112	0.128334	0.128334	0.171112	0.128334	0.128334	0.171112	0.128334	0.128334	0.171112	0.128334	0.000000	0.085000
0.380000	0.000000	0.087300	0.801990	0.070710	-0.063636	-0.127273	0.127273	0.169697	0.127273	0.127273	0.169697	0.127273	0.127273	0.169697	0.127273	0.127273	0.169697	0.127273	0.000000	0.085000
0.381000	0.000000	0.087300	0.802571	0.070129	-0.063114	-0.126228	0.126228	0.168304	0.126228	0.126228	0.168304	0.126228	0.126228	0.168304	0.126228	0.126228	0.168304	0.126228	0.000000	0.085000
0.382000	0.000000	0.087300	0.803142	0.069558	-0.062599	-0.125199	0.125199	0.166932	0.125199	0.125199	0.166932	0.125199	0.125199	0.166932	0.125199	0.125199	0.166932	0.125199	0.000000	0.085000
0.383000	0.000000	0.087300	0.803705	0.068995	-0.062093	-0.124185	0.124185	0.165581	0.124185	0.124185	0.165581	0.124185	0.124185	0.165581	0.124185	0.124185	0.165581	0.124185	0.000000	0.085000
0.384000	0.000000	0.087300	0.804260	0.068440	-0.061594	-0.123187	0.123187	0.164250	0.123187	0.123187	0.164250	0.123187	0.123187	0.164250	0.123187	0.123187	0.164250	0.123187	0.000000	0.085000
0.385000	0.000000	0.087300	0.804806	0.067894	-0.061102	-0.122205	0.122205	0.162940	0.122205	0.122205	0.162940	0.122205	0.122205	0.162940	0.122205	0.122205	0.162940	0.122205	0.000000	0.085000
0.386000	0.000000	0.087300	0.805343	0.067357	-0.060619	-0.121237	0.121237	0.161650	0.121237	0.121237	0.161650	0.121237	0.121237	0.161650	0.121237	0.121237	0.161650	0.121237	0.000000	0.085000
0.387000	0.000000	0.087300	0.805873	0.066827	-0.060142	-0.120285	0.120285	0.160380	0.120285	0.120285	0.160380	0.120285	0.120285	0.160380	0.120285	0.120285	0.160380	0.120285	0.000000	0.085000
0.388000	0.000000	0.087300	0.806393	0.066307	-0.059674	-0.119347	0.119347	0.159130	0.119347	0.119347	0.159130	0.119347	0.119347	0.159130	0.119347	0.119347	0.159130	0.119347	0.000000	0.085000
0.389000	0.000000	0.087300	0.806906	0.065794	-0.059212	-0.118424	0.118424	0.157899	0.118424	0.118424	0.157899	0.118424	0.118424	0.157899	0.118424	0.118424	0.157899	0.118424	0.000000	0.085000
0.390000	0.000000	0.087300	0.807411	0.065289	-0.058758	-0.117516	0.117516	0.156688	0.117516	0.117516	0.156688	0.117516	0.117516	0.156688	0.117516	0.117516	0.156688	0.117516	0.000000	0.085000
0.391000	0.000000	0.087300	0.807907	0.064793	-0.058311	-0.116622	0.116622	0.155496	0.116622	0.116622	0.155496	0.116622	0.116622	0.155496	0.116622	0.116622	0.155496	0.116622	0.000000	0.085000
0.392000	0.000000	0.087300	0.808396	0.064304	-0.057871	-0.115743	0.115743	0.154323	0.115743	0.115743	0.154323	0.115743	0.115743	0.154323	0.115743	0.115743	0.154323	0.115743	0.000000	0.085000
0.393000	0.000000	0.087300	0.808877	0.063823	-0.057439	-0.114877	0.114877	0.153169	0.114877	0.114877	0.153169	0.114877	0.114877	0.153169	0.114877	0.114877	0.153169	0.114877	0.000000	0.085000
0.394000	0.000000	0.087300	0.809350	0.063350	-0.057013	-0.114026	0.114026	0.152034	0.114026	0.114026	0.152034	0.114026	0.114026	0.152034	0.114026	0.114026	0.152034	0.114026	0.000000	0.085000
0.395000	0.000000	0.087300	0.809815	0.062885	-0.056594	-0.113188	0.113188	0.150917	0.113188	0.113188	0.150917	0.113188	0.113188	0.150917	0.113188	0.113188	0.150917	0.113188	0.000000	0.085000
0.396000	0.000000	0.087300	0.810273	0.062427	-0.056182	-0.112364	0.112364	0.149819	0.112364	0.112364	0.149819	0.112364	0.112364	0.149819	0.112364	0.112364	0.149819	0.112364	0.000000	0.085000
0.397000	0.000000	0.087300	0.810723	0.061977	-0.055777	-0.111553	0.111553	0.148738	0.111553	0.111553	0.148738	0.111553	0.111553	0.148738	0.111553	0.111553	0.148738	0.111553	0.000000	0.085000
0.398000	0.000000	0.087300	0.811166	0.061534	-0.055378	-0.110756	0.110756	0.147675	0.110756	0.110756	0.147675	0.110756	0.110756	0.147675	0.110756	0.110756	0.147675	0.110756	0.000000	0.085000
0.399000	0.000000	0.087300	0.811602	0.061098	-0.054986	-0.109973	0.109973	0.146630	0.109973	0.109973	0.146630	0.109973	0.109973	0.146630	0.109973	0.109973	0.146630	0.109973	0.000000	0.085000
0.400000	0.000000	0.087300	0.812030	0.060670	-0.054601	-0.109202	0.109202	0.145603	0.109202	0.109202	0.145603	0.109202	0.109202	0.145603	0.109202	0.109202	0.145603	0.109202	0.000000	0.085000
0.401000	0.000000	0.087300	0.812451	0.060249	-0.054222	-0.108444	0.108444	0.144592	0.108444	0.108444	0.144592	0.108444	0.108444	0.144592	0.108444	0.108444	0.144592	0.108444	0.000000	0.085000
0.402000	0.000000	0.087300	0.812865	0.059835	-0.053850	-0.107699	0.107699	0.143599	0.107699	0.107699	0.143599	0.107699	0.107699	0.143599	0.107699	0.107699	0.143599	0.107699	0.000000	0.085000
0.403000	0.000000	0.087300	0.813272	0.059428	-0.053484	-0.106967	0.106967	0.142623	0.106967	0.106967	0.142623	0.106967	0.106967	0.142623	0.106967	0.106967	0.142623	0.106967	0.000000	0.085000
0.404000	0.000000	0.087300	0.813671	0.059029	-0.053124	-0.106247	0.106247	0.141663	0.106247	0.106247	0.141663	0.106247	0.106247	0.141663	0.106247	0.106247	0.141663	0.106247	0.000000	0.085000
0.405000	0.000000	0.087300	0.814064	0.058636	-0.052770	-0.105540	0.105540	0.140720	0.105540	0.105540	0.140720	0.105540	0.105540	0.140720	0.105540	0.105540	0.140720	0.105540	0.000000	0.085000
0.406000	0.000000	0.087300	0.814450	0.058250	-0.052423	-0.104845	0.104845	0.139793	0.104845	0.104845	0.139793	0.104845	0.104845	0.139793	0.104845	0.104845	0.139793	0.104845	0.000000	0.085000
0.407000	0.000000	0.087300	0.814830	0.057870	-0.052081	-0.104162	0.104162	0.138883	0.104162	0.104162	0.138883	0.104162	0.104162	0.138883	0.104162	0.104162	0.138883	0.104162	0.000000	0.085000
0.408000	0.000000	0.087300	0.815203	0.057497	-0.051746	-0.103491	0.103491	0.137989	0.103491	0.103491	0.137989	0.103491	0.103491	0.137989	0.103491	0.103491	0.137989	0.103491	0.000000	0.085000
0.409000	0.000000	0.087300	0.815569	0.057131	-0.051416	-0.102832	0.102832	0.137110	0.102832	0.102832	0.137110	0.102832	0.102832	0.137110	0.102832	0.102832	0.137110	0.102832	0.000000	0.085000
0.410000	0.000000	0.087300	0.815928	0.056772	-0.051093	-0.102185	0.102185	0.136247	0.102185	0.102185	0.136247	0.102185	0.102185	0.136247	0.102185	0.102185	0.136247	0.102185	0.000000	0.085000
0.411000	0.000000	0.087300	0.816281	0.056419	-0.050775	-0.101550	0.101550	0.135399	0.101550	0.101550	0.135399	0.101550	0.101550	0.135399	0.101550	0.101550	0.135399	0.101550	0.000000	0.085000
0.412000	0.000000	0.087300	0.816628	0.056072	-0.050463	-0.100925	0.100925	0.134567	0.100925	0.100925	0.134567	0.100925	0.100925	0.134567	0.100925	0.100925	0.134567	0.100925	0.000000	0.085000
0.413000	0.000000	0.087300	0.816969	0.055731	-0.050156	-0.100313	0.100313	0.133750	0.100313	0.100313	0.133750	0.100313	0.100313	0.133750	0.100313	0.100313	0.133750	0.100313	0.000000	0.085000
0.414000	0.000000	0.087300	0.817303	0.055397	-0.049856	-0.099711	0.099711	0.132948	0.099711	0.099711	0.132948	0.099711	0.099711	0.132948	0.099711	0.099711	0.132948	0.099711	0.000000	0.085000
0.415000	0.000000	0.087300	0.817631	0.055069	-0.049560	-0.099121	0.099121	0.132161	0.099121	0.099121	0.132161	0.099121	0.099121	0.132161	0.099121	0.099121	0.132161	0.099121	0.000000	0.085000
0.416000	0.000000	0.087300	0.817953	0.054747	-0.049271	-0.098541	0.098541	0.131388	0.098541	0.098541	0.131388	0.098541	0.098541	0.131388	0.098541	0.098541	0.131388	0.098541	0.000000	0.085000
0.417000	0.000000	0.087300	0.818269	0.054431	-0.048986	-0.097972	0.097972	0.130630	0.097972	0.097972	0.130630	0.097972	0.097972	0.130630	0.097972	0.097972	0.130630	0.097972	0.000000	0.085000
0.418000	0.000000	0.087300	0.818579	0.054121	-0.048707	-0.097415	0.097415	0.129886	0.097415	0.097415	0.129886	0.097415	0.097415	0.129886	0.097415	0.097415	0.129886	0.097415	0.000000	0.085000
0.419000	0.000000	0.087300	0.818883	0.053817	-0.048434	-0.096867	0.096867	0.129156	0.096867	0.096867	0.129156	0.096867	0.096867	0.129156	0.096867	0.096867	0.129156	0.096867	0.000000	0.085000
0.420000	0.000000	0.087300	0.819181	0.053519	-0.048165	-0.096330	0.096330	0.128441	0.096330	0.096330	0.128441	0.096330	0.096330	0.128441	0.096330	0.096330	0.128441	0.096330	0.000000	0.085000
0.421000	0.000000	0.087300	0.819474	0.053226	-0.047902	-0.095804	0.095804	0.127739	0.095804	0.095804	0.127739	0.095804	0.095804	0.127739	0.095804	0.095804	0.127739	0.095804	0.000000	0.085000
